<?xml version="1.0" standalone="no"?><!DOCTYPE svg PUBLIC "-//W3C//DTD SVG 1.1//EN" "http://www.w3.org/Graphics/SVG/1.1/DTD/svg11.dtd"><svg t="1610418375031" class="icon" viewBox="0 0 1024 1024" version="1.1" xmlns="http://www.w3.org/2000/svg" p-id="4118" xmlns:xlink="http://www.w3.org/1999/xlink" width="200" height="200"><defs><style type="text/css">@font-face { font-family: element-icons; src: url("chrome-extension://moombeodfomdpjnpocobemoiaemednkg/fonts/element-icons.woff") format("woff"), url("chrome-extension://moombeodfomdpjnpocobemoiaemednkg/fonts/element-icons.ttf ") format("truetype"); }
</style></defs><path d="M450 709.3s-100.2-44.1-163.7 28.1c0 0 56.2 4.3 41.5 78.5 0 0 85.5-16.2 97.7 57.1 0.1 0 73.4-56.2 24.5-163.7z" fill="#CE302F" p-id="4119"></path><path d="M425.6 878c-0.6 0-1.2-0.1-1.8-0.3-1.6-0.6-2.8-2.1-3.1-3.8-3-18.3-11.2-32.1-24.3-41.3-27.2-19-67.2-11.8-67.6-11.8-1.6 0.3-3.3-0.2-4.5-1.4-1.2-1.2-1.7-2.9-1.4-4.5 4.8-24.2 2.3-43-7.5-55.9-11.5-15.2-29.4-16.7-29.5-16.7-1.9-0.1-3.5-1.3-4.3-3.1-0.7-1.8-0.4-3.8 0.9-5.2 27-30.7 65-45.5 109.7-42.8 33.5 2 58.7 13 59.7 13.4 1.1 0.5 2 1.4 2.5 2.5 26 57.2 17.7 100.3 6.1 126.3-12.6 28.3-31.3 42.9-32.1 43.5-0.7 0.8-1.7 1.1-2.8 1.1z m-78.2-68.7c15.5 0 37 2.7 54.7 15 13.2 9.2 22.1 22.3 26.6 39.1 6.2-6.3 15.9-17.9 23.1-34.4 15.2-34.5 13.3-73.5-5.5-115.8-6.1-2.4-27.9-10.3-54.9-11.9-38.8-2.3-70.8 8.8-95.3 33.1 7.8 2.4 18.9 7.5 27.4 18.7 10.6 13.9 14.1 33.1 10.5 57 3.4-0.4 8.1-0.8 13.4-0.8z" fill="#333333" p-id="4120"></path><path d="M759.1 419.3s100.2 44.1 163.7-28.1c0 0-56.2-4.3-41.5-78.5 0 0-85.5 16.2-97.7-57.1 0 0-73.3 56.2-24.5 163.7z" fill="#CE302F" p-id="4121"></path><path d="M827.2 437.6c-3.4 0-6.8-0.1-10.3-0.3-33.5-2-58.7-13-59.7-13.4-1.1-0.5-2-1.4-2.5-2.5-26-57.2-17.7-100.2-6.1-126.3 12.6-28.3 31.3-42.9 32.1-43.5 1.4-1.1 3.2-1.3 4.9-0.7 1.6 0.6 2.8 2.1 3.1 3.8 3 18.3 11.2 32.1 24.3 41.3 27.2 19 67.2 11.8 67.6 11.8 1.6-0.3 3.3 0.2 4.5 1.4 1.2 1.2 1.7 2.9 1.4 4.5-4.8 24.2-2.3 43 7.5 55.9 11.5 15.2 29.4 16.7 29.5 16.7 1.9 0.1 3.5 1.3 4.3 3.1 0.7 1.8 0.4 3.8-0.9 5.2-25.2 28.2-59.5 43-99.7 43z m-64.3-22.2c6.1 2.4 27.9 10.3 54.9 11.9 38.8 2.3 70.8-8.8 95.3-33.1-7.8-2.4-18.9-7.5-27.4-18.7-10.6-13.9-14.1-33.1-10.5-57-13.7 1.4-44.4 2.2-68.1-14.3-13.2-9.2-22.1-22.3-26.6-39.1-6.2 6.3-15.9 17.9-23.1 34.4-15.2 34.6-13.3 73.6 5.5 115.9z" fill="#333333" p-id="4122"></path><path d="M446.520418 715.463925a155.9 220.6 48.259 1 0 329.206658-293.735283 155.9 220.6 48.259 1 0-329.206658 293.735283Z" fill="#FFB600" p-id="4123"></path><path d="M546.1 761c-42.6 0-78.8-14.6-103.4-42.2-28.8-32.3-38.2-78.4-26.3-129.8 11.7-50.7 42.8-100.6 87.5-140.6l3.3 3.7-3.3-3.7c44.7-39.9 97.9-65.1 149.6-71 52.4-6 97.1 8.6 125.9 40.9 28.8 32.3 38.2 78.4 26.3 129.8-11.7 50.7-42.8 100.6-87.5 140.6-44.7 39.9-97.9 65.1-149.6 71-7.6 0.9-15.1 1.3-22.5 1.3z m-35.5-305c-43.2 38.6-73.2 86.6-84.5 135.3-11.1 48.1-2.6 91 24.1 120.8 55.4 62.1 172.7 48.2 261.4-30.9C800.3 602.1 827.4 487.1 772 425c-55.4-62.1-172.6-48.2-261.4 31z" fill="#333333" p-id="4124"></path><path d="M554.6 419.9s185.6 15.4 224.6 184.2L722.5 678l-68.1 44.3s-40.3-143.7-219.3-172.7l52.7-78.2 66.8-51.5z" fill="#CE302F" p-id="4125"></path><path d="M654.4 727.2c-0.6 0-1.2-0.1-1.8-0.3-1.5-0.6-2.6-1.8-3-3.3-0.1-0.3-10.3-35.7-41.9-74-29-35.3-82.7-80.4-173.5-95.1-1.7-0.3-3.1-1.4-3.8-2.9-0.7-1.6-0.5-3.4 0.4-4.8l52.7-78.2c0.3-0.4 0.7-0.8 1.1-1.2l66.8-51.4c1-0.8 2.2-1.1 3.5-1 1.9 0.2 47.9 4.2 99.5 29.3 30.3 14.8 56.2 33.8 76.9 56.5 25.9 28.5 43.6 62.9 52.7 102.2 0.3 1.5 0 3-0.9 4.2L726.5 681c-0.3 0.5-0.8 0.8-1.2 1.2l-68.1 44.3c-0.9 0.4-1.9 0.7-2.8 0.7zM443.5 545.9c38.4 7.1 73.4 20.1 103.9 38.6 26.1 15.8 49.1 35.7 68.3 59.1 25 30.5 37 58.7 41.4 70.9l62-40.3 54.7-71.3c-16.2-67.3-57.9-117.7-123.7-149.8-44.1-21.5-84.9-27.1-94-28.1l-64.6 49.7-48 71.2z" fill="#333333" p-id="4126"></path><path d="M237.3 584.2s-113.1-49.7-184.8 31.7c0 0 63.4 4.8 46.9 88.6 0 0 96.5-18.2 110.3 64.5 0 0 82.7-63.4 27.6-184.8z" fill="#CE302F" p-id="4127"></path><path d="M209.7 774c-0.6 0-1.2-0.1-1.8-0.3-1.6-0.6-2.8-2.1-3.1-3.8-3.5-20.8-12.8-36.6-27.7-47.1-31-21.7-76.3-13.4-76.7-13.4-1.6 0.3-3.3-0.2-4.5-1.4-1.2-1.2-1.7-2.9-1.4-4.5 5.4-27.5 2.6-48.8-8.5-63.5-13.1-17.3-33.7-19.2-33.9-19.2-1.9-0.2-3.5-1.4-4.2-3.1-0.7-1.8-0.4-3.8 0.9-5.2 30.4-34.5 73-51.1 123.3-48 37.7 2.3 66 14.6 67.2 15.1 1.1 0.5 2 1.4 2.5 2.5 29.3 64.4 19.9 112.8 6.9 142-14.1 31.8-35.1 48.1-36 48.8-0.8 0.7-1.9 1.1-3 1.1z m-88.2-76.3c17.4 0 41.6 3 61.3 16.8 15 10.5 25.1 25.6 30 44.9 7-7 18.5-20.4 27-39.8 17.3-39.2 15.1-83.5-6.3-131.6-6.6-2.6-31.5-11.8-62.4-13.6-44.4-2.6-81 10.2-108.9 38.3 8.7 2.5 21.7 8.2 31.6 21.2 11.9 15.7 15.8 37.4 11.6 64.7 4.1-0.5 9.6-0.9 16.1-0.9z" fill="#333333" p-id="4128"></path><path d="M586.2 256.8s113.1 49.7 184.8-31.7c0 0-63.4-4.8-46.9-88.6 0 0-96.5 18.2-110.3-64.5 0 0-82.8 63.4-27.6 184.8z" fill="#CE302F" p-id="4129"></path><path d="M663 276.8c-3.8 0-7.7-0.1-11.6-0.4-37.7-2.3-66-14.6-67.2-15.1-1.1-0.5-2-1.4-2.5-2.5-29.3-64.4-19.9-112.8-6.9-142 14.1-31.8 35.1-48.1 36-48.8 1.4-1.1 3.2-1.3 4.9-0.7 1.6 0.6 2.8 2.1 3.1 3.8 3.5 20.8 12.8 36.6 27.7 47 31 21.6 76.3 13.5 76.8 13.4 1.6-0.3 3.3 0.2 4.5 1.4 1.2 1.2 1.7 2.9 1.4 4.5-5.4 27.6-2.6 48.9 8.6 63.6 13.2 17.3 33.6 19.1 33.8 19.1 1.9 0.1 3.5 1.3 4.3 3.1 0.7 1.8 0.4 3.8-0.9 5.2-28.3 31.8-66.7 48.4-112 48.4z m-73.1-23.9c6.6 2.6 31.5 11.8 62.4 13.6 44.4 2.6 81-10.2 108.9-38.3-8.7-2.5-21.7-8.2-31.6-21.2-11.9-15.7-15.8-37.4-11.6-64.7-14.9 1.6-50.2 2.9-77.3-16-15-10.5-25.1-25.6-30-44.9-7 7-18.5 20.4-27 39.8-17.3 39.4-15.2 83.6 6.2 131.7z" fill="#333333" p-id="4130"></path><path d="M233.230743 591.161111a176 249.1 48.259 1 0 371.73789-331.683857 176 249.1 48.259 1 0-371.73789 331.683857Z" fill="#FFB600" p-id="4131"></path><path d="M345.8 641.9c-47.9 0-88.6-16.4-116.2-47.4-32.4-36.3-42.9-88.1-29.6-145.9 13.2-57.1 48.2-113.4 98.6-158.3 50.4-45 110.2-73.4 168.5-80 58.9-6.7 109.2 9.6 141.6 45.9 32.4 36.3 42.9 88.1 29.6 145.9-13.2 57.1-48.2 113.4-98.6 158.3-50.4 45-110.2 73.4-168.5 80-8.7 1-17.2 1.5-25.4 1.5z m146.4-423.1c-59.9 0-128.8 27.1-186.9 78.9-48.9 43.6-82.8 98-95.5 153.1-12.6 54.5-2.9 103.1 27.3 137 30.2 33.8 77.4 49 133 42.7 56.2-6.4 114.1-33.9 163-77.5 48.9-43.6 82.8-98 95.5-153.1 12.6-54.5 2.9-103.1-27.3-137-26.5-29.7-65.4-44.1-109.1-44.1z" fill="#333333" p-id="4132"></path><path d="M355.3 257.4s209.5 17.4 253.6 207.9l-64 83.4-76.9 50s-45.5-162.2-247.6-195l59.5-88.3 75.4-58z" fill="#CE302F" p-id="4133"></path><path d="M468 603.7c-0.6 0-1.2-0.1-1.8-0.3-1.5-0.6-2.6-1.8-3-3.3-0.1-0.4-11.7-40.4-47.3-83.7-32.9-39.9-93.6-91-196.2-107.7-1.7-0.3-3.1-1.4-3.8-2.9-0.7-1.6-0.5-3.4 0.4-4.8l59.5-88.3c0.3-0.4 0.7-0.8 1.1-1.2l75.4-58c1-0.8 2.2-1.1 3.5-1 2.2 0.2 54 4.7 112 33 34.2 16.6 63.3 38.1 86.6 63.7 29.2 32.1 49.1 70.8 59.4 115.1 0.3 1.5 0 3-0.9 4.2l-64 83.4c-0.3 0.5-0.8 0.8-1.2 1.2l-76.9 50c-0.9 0.4-1.9 0.6-2.8 0.6zM228.9 400.1c43.7 7.9 83.4 22.6 118.1 43.6 29.4 17.8 55.3 40.2 76.9 66.6 28.8 35 42.1 67.3 46.9 80.6l70.7-45.9 62-80.8c-18.3-76.2-65.3-133.3-139.8-169.6-50.4-24.6-97.1-30.9-106.9-32l-73.2 56.3-54.7 81.2z" fill="#333333" p-id="4134"></path></svg>