<?xml version="1.0" standalone="no"?><!DOCTYPE svg PUBLIC "-//W3C//DTD SVG 1.1//EN" "http://www.w3.org/Graphics/SVG/1.1/DTD/svg11.dtd"><svg t="1610361346807" class="icon" viewBox="0 0 1024 1024" version="1.1" xmlns="http://www.w3.org/2000/svg" p-id="1706" xmlns:xlink="http://www.w3.org/1999/xlink" width="200" height="200"><defs><style type="text/css">@font-face { font-family: element-icons; src: url("chrome-extension://moombeodfomdpjnpocobemoiaemednkg/fonts/element-icons.woff") format("woff"), url("chrome-extension://moombeodfomdpjnpocobemoiaemednkg/fonts/element-icons.ttf ") format("truetype"); }
</style></defs><path d="M874.5 493.7L704.3 235S155.3 596.3 154 597.2c-20.1 13.3 1.9 82.3 49.2 154.2 47.3 71.9 102 119.5 122.2 106.2 1.9-1.3 549.1-363.9 549.1-363.9z" fill="#CE302F" p-id="1707"></path><path d="M198.1 754.7c-23.2-35.2-41.2-71-50.6-100.6-10.3-32.4-9.3-53.9 3.1-62L706 226.6l176.9 268.9-5 3.3c-22.3 14.8-547.2 362.6-549.2 363.9-12.4 8.2-32.5 0.7-58.2-21.6-23.5-20.5-49.2-51.2-72.4-86.4z m504.4-511.3L157.3 602.2c-13.1 8.6-0.1 68.3 50.9 145.8S308.9 861.1 322 852.5c2.1-1.4 488.9-323.9 544.1-360.5L702.5 243.4z" fill="#333333" p-id="1708"></path><path d="M758.085399 386.097922a155.9 43.7 56.647 1 0 73.005146-48.052146 155.9 43.7 56.647 1 0-73.005146 48.052146Z" fill="#D84444" p-id="1709"></path><path d="M753.1 389.5c-23.2-35.2-41.2-71-50.6-100.6-10.3-32.4-9.3-53.9 3.1-62 12.4-8.2 32.5-0.7 58.2 21.6 23.5 20.4 49.2 51.1 72.4 86.3 23.2 35.2 41.2 71 50.6 100.6 10.3 32.4 9.3 53.9-3.1 62-12.4 8.2-32.5 0.7-58.2-21.6-23.5-20.5-49.2-51.1-72.4-86.3z m72.9-48.1C775 263.9 725.4 228.3 712.3 237s-0.1 68.3 50.9 145.8c51 77.5 100.7 113.1 113.8 104.5 13.1-8.7 0.1-68.3-51-145.9z" fill="#333333" p-id="1710"></path><path d="M784.982032 368.3945a41.2 11.5 56.647 1 0 19.21188-12.645302 41.2 11.5 56.647 1 0-19.21188 12.645302Z" fill="#E04B4B" p-id="1711"></path><path d="M796.6 376.2c-0.7-1.1-1.1-2.4-1-3.7 0.2-3.3 3.1-5.9 6.4-5.7 2.1 0.1 21.1 0.1 23-29.1 1.1-18.2 7.6-31.5 19.1-39.6 20.2-14.2 48.3-6.2 49.5-5.9 3.2 0.9 5.1 4.3 4.1 7.5-0.9 3.2-4.3 5.1-7.5 4.1-0.3-0.1-23.8-6.6-39.2 4.2-8.3 5.9-13 16.1-13.9 30.4-0.9 14.3-5.4 25.1-13.5 32.2-10.1 8.9-21.9 8.2-22.4 8.2-1.9 0-3.6-1.1-4.6-2.6z" fill="#333333" p-id="1712"></path><path d="M380.099891 509.196065a10.9 116.6 56.647 1 0 194.79176-128.212363 10.9 116.6 56.647 1 0-194.79176 128.212363Z" fill="#D33C3C" p-id="1713"></path><path d="M330.031448 744.127933a9.7 55.8 56.647 1 0 93.219384-61.357203 9.7 55.8 56.647 1 0-93.219384 61.357203Z" fill="#D33C3C" p-id="1714"></path><path d="M514.1 617.6m-18 0a18 18 0 1 0 36 0 18 18 0 1 0-36 0Z" fill="#D33C3C" p-id="1715"></path><path d="M661.3 196.7H351.5v658.8c0 24.1 69.8 43.7 155.9 43.7s155.9-19.6 155.9-43.7c0-2.4-2-658.8-2-658.8z" fill="#CE302F" p-id="1716"></path><path d="M507.4 905.3c-42.2 0-81.9-4.6-111.9-13-32.8-9.2-50.1-21.9-50.1-36.7V190.7h321.9v6c0.1 26.8 2 656.4 2 658.8 0 14.8-17.3 27.5-50.1 36.7-29.9 8.4-69.6 13.1-111.8 13.1zM357.6 202.8v652.7c0 15.7 57 37.6 149.8 37.6s149.8-21.9 149.8-37.6c0-2.5-1.8-586.5-2-652.7H357.6z" fill="#333333" p-id="1717"></path><path d="M351.5 191.1a155.9 43.7 0 1 0 311.8 0 155.9 43.7 0 1 0-311.8 0Z" fill="#D84444" p-id="1718"></path><path d="M507.4 240.9c-42.2 0-81.9-4.6-111.9-13-32.8-9.2-50.1-21.9-50.1-36.7s17.3-27.5 50.1-36.7c30-8.4 69.7-13 111.9-13s81.9 4.6 111.9 13c32.8 9.2 50.1 21.9 50.1 36.7s-17.3 27.5-50.1 36.7c-30 8.4-69.7 13-111.9 13z m0-87.4c-92.8 0-149.8 21.9-149.8 37.6s57 37.6 149.8 37.6 149.8-21.9 149.8-37.6-57-37.6-149.8-37.6z" fill="#333333" p-id="1719"></path><path d="M466.2 191.1a41.2 11.5 0 1 0 82.4 0 41.2 11.5 0 1 0-82.4 0Z" fill="#E04B4B" p-id="1720"></path><path d="M520.2 197.2c-1.3 0-2.6-0.4-3.6-1.2-2.7-2-3.2-5.8-1.2-8.5 1.2-1.7 11.7-17.6-11.6-35.2-14.6-11-22.2-23.6-22.6-37.7-0.7-24.7 21.4-43.8 22.3-44.6 2.6-2.2 6.4-1.9 8.6 0.7 2.2 2.5 1.9 6.4-0.7 8.5-0.3 0.2-18.6 16.2-18 35 0.3 10.2 6.3 19.7 17.8 28.3 11.5 8.6 18 18.4 19.5 29 1.9 13.3-5.2 22.8-5.5 23.2-1.3 1.7-3.1 2.5-5 2.5z" fill="#333333" p-id="1721"></path><path d="M391.5 501.7a10.9 116.6 0 1 0 21.8 0 10.9 116.6 0 1 0-21.8 0Z" fill="#D33C3C" p-id="1722"></path><path d="M561.4 733.5a9.7 55.8 0 1 0 19.4 0 9.7 55.8 0 1 0-19.4 0Z" fill="#D33C3C" p-id="1723"></path><path d="M566.5 565.9m-18 0a18 18 0 1 0 36 0 18 18 0 1 0-36 0Z" fill="#D33C3C" p-id="1724"></path></svg>