<?xml version="1.0" standalone="no"?><!DOCTYPE svg PUBLIC "-//W3C//DTD SVG 1.1//EN" "http://www.w3.org/Graphics/SVG/1.1/DTD/svg11.dtd"><svg t="1610418382854" class="icon" viewBox="0 0 1024 1024" version="1.1" xmlns="http://www.w3.org/2000/svg" p-id="4280" xmlns:xlink="http://www.w3.org/1999/xlink" width="200" height="200"><defs><style type="text/css">@font-face { font-family: element-icons; src: url("chrome-extension://moombeodfomdpjnpocobemoiaemednkg/fonts/element-icons.woff") format("woff"), url("chrome-extension://moombeodfomdpjnpocobemoiaemednkg/fonts/element-icons.ttf ") format("truetype"); }
</style></defs><path d="M543.8 775.9h-54.3v-34.7c0-15 12.1-27.2 27.2-27.2 15 0 27.2 12.1 27.2 27.2v34.7h-0.1z" fill="#F8B739" p-id="4281"></path><path d="M549 781h-64.6v-39.9c0-17.8 14.5-32.3 32.3-32.3 17.8 0 32.3 14.5 32.3 32.3V781z m-54.3-10.3h44v-29.6c0-12.1-9.9-22-22-22s-22 9.9-22 22v29.6z" fill="#333333" p-id="4282"></path><path d="M583 928.9s-22.4 14-69.8 14.1-62.9-14.1-62.9-14.1l39.2-153h54.3l39.2 153z" fill="#F8B739" p-id="4283"></path><path d="M512.8 948.2c-48.5 0-65.3-14.8-66.1-15.5l-2.3-2.1 41-159.9h62.3l41.1 160.5-3.2 2c-1 0.6-24.2 14.8-72.5 14.8 0 0.2-0.1 0.2-0.3 0.2z m-56.6-21.4c5.8 3.4 22.4 11.1 56.7 11.1h0.4c35.3-0.1 56.3-8.1 63.8-11.6l-37.2-145.1h-46.4l-37.3 145.6zM511.4 713.8l0.3-102.4 10.3 0.3-0.3 102.4z" fill="#333333" p-id="4284"></path><path d="M489.5 945.6h-0.7c-2.8-0.4-4.8-2.9-4.4-5.8l17-128.1c0.4-2.8 2.9-4.8 5.8-4.4 2.8 0.4 4.8 2.9 4.4 5.8l-17 128.1c-0.2 2.5-2.5 4.4-5.1 4.4zM531.2 909.7c-2.7 0-4.9-2.1-5.2-4.8l-4.1-66.1c-0.2-2.8 2-5.3 4.8-5.5s5.3 2 5.5 4.8l4.1 66.1c0.2 2.8-2 5.3-4.8 5.5h-0.3z" fill="#333333" p-id="4285"></path><path d="M507.2 151.9s-33.3-84.5 9-84.8 13.6 73.9 6.6 84.8-15.6 0-15.6 0z" fill="#FFFFFF" p-id="4286"></path><path d="M515.6 160.7c-6.3 0-11-5.6-11.5-6.3l-0.4-0.5-0.2-0.5c-0.9-2.4-22.4-57.8-7.2-80.4 4.4-6.4 11-9.7 19.8-9.8h0.2c12.9 0 19.2 6.5 22.2 11.9 6.6 12.1 3.9 31.1 0.4 44.8-4 15.6-10.1 29.6-13 34-3.4 5.3-7.3 6.5-9.9 6.6-0.1 0.2-0.3 0.2-0.4 0.2z m-5-10.8c1.1 1.2 3.4 3.1 5.2 3 1.5-0.1 2.9-1.7 3.7-3.1 5.3-8.2 22.5-52.3 12.3-70.9-2.9-5.3-8-7.9-15.6-7.9-6.2 0.1-10.5 2.1-13.4 6.3-10.6 15.7 1.8 57.1 7.8 72.6zM511.322 307.779l0.781-86 10 0.09-0.78 86z" fill="#333333" p-id="4287"></path><path d="M599.8 395.4l-85.7-85.7 42.8-42.8c23.7-23.7 62-23.7 85.7 0 23.7 23.7 23.7 62 0 85.7l-42.8 42.8z" fill="#F8B739" p-id="4288"></path><path d="M599.8 400.4c-1.3 0-2.6-0.5-3.5-1.5l-85.7-85.7c-2-2-2-5.1 0-7.1l42.9-42.8c12.4-12.4 28.9-19.2 46.4-19.2s34 6.8 46.4 19.2c25.6 25.6 25.6 67.2 0 92.8l-42.8 42.8c-1.1 1-2.4 1.5-3.7 1.5z m-78.6-90.7l78.6 78.6 39.3-39.3c21.7-21.7 21.7-57 0-78.6-10.5-10.5-24.5-16.3-39.3-16.3s-28.8 5.8-39.3 16.3l-39.3 39.3z" fill="#333333" p-id="4289"></path><path d="M728.7 524.3l-42.8-42.8 42.8-42.8c23.7-23.7 62-23.7 85.7 0 23.7 23.7 23.7 62 0 85.7-23.7 23.6-62 23.6-85.7-0.1z" fill="#F8B739" p-id="4290"></path><path d="M771.6 547c-16.8 0-33.6-6.4-46.4-19.2L682.3 485c-2-2-2-5.1 0-7.1l42.8-42.9c25.6-25.6 67.2-25.6 92.8 0s25.6 67.2 0 92.8c-12.7 12.8-29.5 19.2-46.3 19.2z m-39.4-26.2c21.7 21.7 57 21.7 78.6 0 10.5-10.5 16.3-24.5 16.3-39.3s-5.8-28.8-16.3-39.3c-21.7-21.7-57-21.7-78.6 0l-39.3 39.3 39.3 39.3z" fill="#333333" p-id="4291"></path><path d="M430.2 393.6l-42.8-42.8c-23.7-23.7-23.7-62 0-85.7 23.7-23.7 62-23.7 85.7 0l42.8 42.8-85.7 85.7z" fill="#F8B739" p-id="4292"></path><path d="M430.2 398.6c-1.3 0-2.6-0.5-3.5-1.5l-42.8-42.8c-25.6-25.6-25.6-67.2 0-92.8 25.6-25.6 67.2-25.6 92.8 0l42.8 42.9c2 2 2 5.1 0 7.1l-85.7 85.7c-1 0.9-2.3 1.4-3.6 1.4z m0-146.3c-14.2 0-28.5 5.4-39.3 16.3-21.7 21.7-21.7 57 0 78.6l39.3 39.3 78.6-78.6-39.3-39.3a55.599 55.599 0 0 0-39.3-16.3z" fill="#333333" p-id="4293"></path><path d="M430.193 393.607l85.7-85.7 85.701 85.7-85.7 85.7z" fill="#CE302F" p-id="4294"></path><path d="M515.9 484.3c-1.3 0-2.6-0.5-3.5-1.5l-85.7-85.7c-0.9-0.9-1.5-2.2-1.5-3.5s0.5-2.6 1.5-3.5l85.7-85.7c2-2 5.1-2 7.1 0l85.7 85.7c2 2 2 5.1 0 7.1l-85.7 85.7c-1 0.9-2.3 1.4-3.6 1.4z m-78.6-90.7l78.6 78.6 78.6-78.6-78.6-78.6-78.6 78.6z" fill="#333333" p-id="4295"></path><path d="M515.893 479.306l85.7-85.7 85.7 85.7-85.7 85.7z" fill="#CE302F" p-id="4296"></path><path d="M601.6 570c-1.3 0-2.6-0.5-3.5-1.5l-85.7-85.7c-2-2-2-5.1 0-7.1l85.7-85.7c0.9-0.9 2.2-1.5 3.5-1.5s2.6 0.5 3.5 1.5l85.7 85.7c0.9 0.9 1.5 2.2 1.5 3.5s-0.5 2.6-1.5 3.5l-85.7 85.7c-0.9 1.1-2.2 1.6-3.5 1.6zM523 479.3l78.6 78.6 78.6-78.6-78.6-78.6-78.6 78.6z" fill="#333333" p-id="4297"></path><path d="M345.806 477.994l85.7-85.7 85.7 85.7-85.7 85.7z" fill="#CE302F" p-id="4298"></path><path d="M431.5 568.7c-1.3 0-2.6-0.5-3.5-1.5l-85.7-85.7c-2-2-2-5.1 0-7.1l85.7-85.7c0.9-0.9 2.2-1.5 3.5-1.5s2.6 0.5 3.5 1.5l85.7 85.7c2 2 2 5.1 0 7.1L435 567.2c-0.9 1-2.2 1.5-3.5 1.5zM352.9 478l78.6 78.6 78.6-78.6-78.6-78.6-78.6 78.6z" fill="#333333" p-id="4299"></path><path d="M431.505 563.694l85.7-85.7 85.701 85.7-85.7 85.7z" fill="#CE302F" p-id="4300"></path><path d="M517.2 654.4c-1.3 0-2.6-0.5-3.5-1.5L428 567.2c-2-2-2-5.1 0-7.1l85.7-85.7c0.9-0.9 2.2-1.5 3.5-1.5s2.6 0.5 3.5 1.5l85.7 85.7c0.9 0.9 1.5 2.2 1.5 3.5s-0.5 2.6-1.5 3.5l-85.7 85.7c-0.9 1.1-2.2 1.6-3.5 1.6z m-78.6-90.7l78.6 78.6 78.6-78.6-78.6-78.6-78.6 78.6z" fill="#333333" p-id="4301"></path><path d="M560.4 692.6l-42.8-42.8 85.7-85.7 42.8 42.8c23.7 23.7 23.7 62 0 85.7-23.6 23.7-62 23.7-85.7 0z" fill="#F8B739" p-id="4302"></path><path d="M603.3 715.3c-16.8 0-33.6-6.4-46.4-19.2L514 653.3c-2-2-2-5.1 0-7.1l85.7-85.7c0.9-0.9 2.2-1.5 3.5-1.5s2.6 0.5 3.5 1.5l42.8 42.8c25.6 25.6 25.6 67.2 0 92.8-12.6 12.8-29.4 19.2-46.2 19.2z m-78.7-65.5l39.3 39.3c21.7 21.7 57 21.7 78.6 0 21.7-21.7 21.7-57 0-78.6l-39.3-39.3-78.6 78.6z" fill="#333333" p-id="4303"></path><path d="M218.9 519.2c-23.7-23.7-23.7-62 0-85.7 23.7-23.7 62-23.7 85.7 0l42.8 42.8-42.8 42.8c-23.6 23.7-62 23.7-85.7 0.1z" fill="#F8B739" p-id="4304"></path><path d="M261.8 541.9c-16.8 0-33.6-6.4-46.4-19.2-25.6-25.6-25.6-67.2 0-92.8 12.4-12.4 28.9-19.2 46.4-19.2s34 6.8 46.4 19.2l42.8 42.8c2 2 2 5.1 0 7.1l-42.8 42.8c-12.8 12.9-29.6 19.3-46.4 19.3z m-39.3-26.3c21.7 21.7 57 21.7 78.6 0l39.3-39.3-39.3-39.3c-21.7-21.7-57-21.7-78.6 0-21.7 21.7-21.7 57 0 78.6z" fill="#333333" p-id="4305"></path><path d="M390.3 690.6c-23.7-23.7-23.7-62 0-85.7l42.8-42.8 85.7 85.7-42.8 42.8c-23.6 23.6-62 23.6-85.7 0z" fill="#F8B739" p-id="4306"></path><path d="M433.2 713.3c-16.8 0-33.6-6.4-46.4-19.2-25.6-25.6-25.6-67.2 0-92.8l42.9-42.8c2-2 5.1-2 7.1 0l85.7 85.7c2 2 2 5.1 0 7.1l-42.8 42.8c-12.9 12.8-29.7 19.2-46.5 19.2zM393.9 687c21.7 21.7 57 21.7 78.6 0l39.3-39.3-78.6-78.6-39.3 39.3c-21.7 21.7-21.7 57 0 78.6z" fill="#333333" p-id="4307"></path><path d="M450.384 189.899l66.326-66.326 66.326 66.326-66.326 66.325z" fill="#CE302F" p-id="4308"></path><path d="M516.7 261.2c-1.3 0-2.6-0.5-3.5-1.5l-66.4-66.4c-0.9-0.9-1.5-2.2-1.5-3.5s0.5-2.6 1.5-3.5l66.4-66.4c2-2 5.1-2 7.1 0l66.4 66.4c2 2 2 5.1 0 7.1l-66.4 66.4c-1.1 0.9-2.3 1.4-3.6 1.4z m-59.3-71.3l59.3 59.3 59.3-59.3-59.3-59.3-59.3 59.3z" fill="#333333" p-id="4309"></path><path d="M496.9 170.1h39.6v39.6h-39.6z" fill="#F8B739" p-id="4310"></path><path d="M536.5 214.7h-39.6c-2.8 0-5-2.2-5-5v-39.6c0-2.8 2.2-5 5-5h39.6c2.8 0 5 2.2 5 5v39.6c0 2.7-2.3 5-5 5z m-34.6-10h29.6v-29.6h-29.6v29.6z" fill="#333333" p-id="4311"></path></svg>